<mxfile host="app.diagrams.net" modified="2024-07-23T17:02:26.498Z" agent="Mozilla/5.0 (Windows NT 10.0; Win64; x64; rv:128.0) Gecko/20100101 Firefox/128.0" version="24.7.1" etag="7dP_BW_Ra7hcYKKXPQNN" type="github">
  <diagram name="PÃ¡gina-1" id="Pxquvf71-UIzf5PyOPTB">
    <mxGraphModel>
      <root>
        <mxCell id="0" />
        <mxCell id="1" parent="0" />
      </root>
    </mxGraphModel>
  </diagram>
</mxfile>
